<?xml version="1.0" encoding="UTF-8" standalone="no"?>
<!-- Created with Inkscape (http://www.inkscape.org/) -->

<svg
   width="75.115211mm"
   height="75.379883mm"
   viewBox="0 0 75.115211 75.379883"
   version="1.1"
   id="svg5"
   inkscape:version="1.1 (c68e22c387, 2021-05-23)"
   sodipodi:docname="EPI Logo Original.svg"
   xmlns:inkscape="http://www.inkscape.org/namespaces/inkscape"
   xmlns:sodipodi="http://sodipodi.sourceforge.net/DTD/sodipodi-0.dtd"
   xmlns="http://www.w3.org/2000/svg"
   xmlns:svg="http://www.w3.org/2000/svg">
  <sodipodi:namedview
     id="namedview7"
     pagecolor="#ffffff"
     bordercolor="#666666"
     borderopacity="1.0"
     inkscape:pageshadow="2"
     inkscape:pageopacity="0.0"
     inkscape:pagecheckerboard="0"
     inkscape:document-units="mm"
     showgrid="false"
     inkscape:zoom="0.67081229"
     inkscape:cx="-20.124855"
     inkscape:cy="352.55764"
     inkscape:window-width="1284"
     inkscape:window-height="975"
     inkscape:window-x="1107"
     inkscape:window-y="128"
     inkscape:window-maximized="0"
     inkscape:current-layer="layer1" />
  <defs
     id="defs2">
    <filter
       id="fx0"
       x="-21"
       y="-29.700001"
       width="252.00002"
       height="356.40002"
       filterUnits="userSpaceOnUse"
       primitiveUnits="userSpaceOnUse">
      <feComponentTransfer
         color-interpolation-filters="sRGB"
         id="feComponentTransfer17">
        <feFuncR
           type="discrete"
           tableValues="0.0196078 0.0196078"
           id="feFuncR9" />
        <feFuncG
           type="discrete"
           tableValues="0.0313726 0.0313726"
           id="feFuncG11" />
        <feFuncB
           type="discrete"
           tableValues="0.0588235 0.0588235"
           id="feFuncB13" />
        <feFuncA
           type="linear"
           slope="0.341176"
           intercept="0"
           id="feFuncA15" />
      </feComponentTransfer>
      <feGaussianBlur
         stdDeviation="5.33333 5.33333"
         id="feGaussianBlur19" />
    </filter>
    <clipPath
       id="clip1">
      <rect
         x="493"
         y="120"
         width="291"
         height="292"
         id="rect22" />
    </clipPath>
  </defs>
  <g
     inkscape:label="Layer 1"
     inkscape:groupmode="layer"
     id="layer1"
     transform="translate(-61.442398,-23.839938)">
    <g
       clip-path="url(#clip1)"
       transform="matrix(0.26458333,0,0,0.26458333,-68.997184,-7.9100621)"
       id="g45">
      <g
         filter="url(#fx0)"
         transform="translate(492,120)"
         id="g31">
        <g
           id="g29">
          <path
             d="m 17,52.9267 c 0,-20.0259 16.2342,-36.26 36.26,-36.26 h 186.48 c 20.026,0 36.26,16.2341 36.26,36.26 V 239.407 c 0,20.026 -16.234,36.26 -36.26,36.26 H 53.26 C 33.2342,275.667 17,259.433 17,239.407 Z"
             fill="#172c49"
             fill-rule="evenodd"
             id="path27" />
        </g>
      </g>
      <path
         d="M 509,166.26 C 509,146.234 525.234,130 545.26,130 h 186.48 c 20.026,0 36.26,16.234 36.26,36.26 V 352.74 C 768,372.766 751.766,389 731.74,389 H 545.26 C 525.234,389 509,372.766 509,352.74 Z"
         fill="#172c49"
         fill-rule="evenodd"
         id="path33" />
      <path
         d="m 531.5,178.403 c 0,-14.306 11.597,-25.903 25.903,-25.903 h 163.194 c 14.306,0 25.903,11.597 25.903,25.903 v 163.194 c 0,14.306 -11.597,25.903 -25.903,25.903 H 557.403 c -14.306,0 -25.903,-11.597 -25.903,-25.903 z"
         stroke="#2c4e76"
         stroke-linejoin="round"
         stroke-miterlimit="10"
         fill="#172c49"
         fill-rule="evenodd"
         fill-opacity="0"
         id="path35" />
      <text
         fill="#ffffff"
         font-family="'Arial Black', 'Arial Black_MSFontService', sans-serif"
         font-weight="900"
         font-size="76px"
         transform="translate(562.817,256)"
         id="text37">EPI</text>
      <rect
         x="598"
         y="316"
         width="18"
         height="18"
         fill="#15acd6"
         id="rect39" />
      <rect
         x="629"
         y="316"
         width="18"
         height="18"
         fill="#15acd6"
         id="rect41" />
      <rect
         x="660"
         y="316"
         width="19"
         height="18"
         fill="#15acd6"
         id="rect43" />
    </g>
  </g>
</svg>
